<svg version="1.1" id="Layer_1" xmlns="http://www.w3.org/2000/svg" xmlns:xlink="http://www.w3.org/1999/xlink" x="0px" y="0px"
	 width="100%" viewBox="0 0 2048 2048" enable-background="new 0 0 2048 2048" xml:space="preserve">
<path fill="#FEFEFE" opacity="1.000000" stroke="none" 
	d="
M1904.000000,2049.000000 
	C1269.333374,2049.000000 635.166687,2049.000000 1.000000,2049.000000 
	C1.000000,1366.333374 1.000000,683.666687 1.000000,1.000000 
	C683.666687,1.000000 1366.333374,1.000000 2049.000000,1.000000 
	C2049.000000,683.666687 2049.000000,1366.333374 2049.000000,2049.000000 
	C2000.833374,2049.000000 1952.666626,2049.000000 1904.000000,2049.000000 
M1652.709473,966.248230 
	C1635.980103,953.685913 1617.202026,953.327881 1603.397583,965.308228 
	C1587.952637,978.712280 1584.099487,1002.372131 1594.433105,1020.944275 
	C1598.802124,1028.796265 1605.296387,1034.660278 1613.583618,1037.785522 
	C1628.382812,1043.366455 1642.287720,1041.744263 1654.097412,1029.257935 
	C1654.365845,1029.714233 1654.634399,1030.170532 1654.902832,1030.626831 
	C1654.902832,1033.493774 1654.902832,1036.360718 1654.902832,1039.638916 
	C1661.701050,1039.638916 1667.946533,1039.638916 1674.144287,1039.638916 
	C1674.144287,1012.513123 1674.144287,985.483887 1674.144287,958.278503 
	C1667.447266,958.278503 1661.366455,958.278503 1655.155029,958.278503 
	C1654.985596,960.540283 1654.838501,962.504150 1653.914307,965.425171 
	C1653.737793,965.796326 1653.561279,966.167480 1652.709473,966.248230 
M311.151215,1024.297363 
	C310.992645,1021.234924 310.834076,1018.172485 310.775574,1014.286011 
	C310.722565,1013.182983 310.669586,1012.080017 310.884003,1010.371887 
	C310.506805,1009.481995 310.129639,1008.592041 309.475830,1007.056213 
	C306.619843,1004.271912 303.926910,1001.292725 300.876465,998.740906 
	C292.582214,991.802307 292.402100,991.715149 300.868073,985.315002 
	C307.279999,980.467651 310.723114,974.694214 310.622345,966.318359 
	C310.408081,948.506165 311.030487,930.684998 310.912231,912.870117 
	C310.880524,908.094971 312.497070,906.843506 316.957794,906.951904 
	C327.776611,907.215149 338.606567,907.222473 349.428619,907.076782 
	C356.815643,906.977417 361.593536,901.888855 361.552429,894.707214 
	C361.514191,888.019592 356.989166,883.833130 349.436523,883.817017 
	C333.615601,883.783203 317.793610,883.795471 301.973602,883.949463 
	C292.002869,884.046509 287.267883,888.829285 287.236542,898.757446 
	C287.178131,917.242249 286.676239,935.753784 287.506256,954.202515 
	C287.984497,964.831970 286.762970,973.584839 276.347992,978.786072 
	C275.490448,979.214355 274.913971,980.172241 274.127136,980.781067 
	C270.631897,983.485107 269.790558,987.100403 269.743011,991.369934 
	C269.653381,999.418701 275.654205,1003.130310 280.975800,1006.723511 
	C285.614838,1009.855713 287.187195,1013.322815 287.174835,1018.660889 
	C287.124664,1040.309204 287.362671,1061.958740 287.618866,1083.606445 
	C287.651642,1086.375000 288.416595,1089.134888 288.654510,1092.546143 
	C291.435547,1099.644897 295.860565,1104.065430 304.247528,1103.889771 
	C319.855591,1103.562866 335.476562,1103.883667 351.087280,1103.633423 
	C357.026886,1103.538208 361.643005,1097.016113 361.476196,1089.899658 
	C361.329498,1083.642822 357.113220,1079.401855 350.669464,1079.343628 
	C341.021240,1079.256470 331.371429,1079.360962 321.722290,1079.352661 
	C311.480225,1079.343872 311.484192,1079.327759 310.848816,1069.360718 
	C310.817902,1068.875488 310.610718,1068.401611 310.593262,1067.328613 
	C310.559631,1066.929321 310.526001,1066.530029 310.723633,1065.500732 
	C310.660492,1065.286133 310.597382,1065.071533 310.665863,1063.949097 
	C310.679413,1050.937378 310.692963,1037.925537 311.151215,1024.297363 
M465.643616,1065.055786 
	C459.306793,1061.394653 452.888947,1057.865845 446.650818,1054.043579 
	C435.169037,1047.008301 423.795013,1039.797241 412.370087,1032.669067 
	C411.100891,1031.877197 409.824829,1031.085571 408.497009,1030.400269 
	C402.619629,1027.366821 397.192108,1028.496826 393.998627,1033.375854 
	C391.016357,1037.932251 392.224731,1044.527710 397.334808,1047.871338 
	C424.619049,1065.723755 451.961334,1083.490112 479.464569,1101.001709 
	C482.340210,1102.832642 486.395264,1103.467041 489.918518,1103.514526 
	C507.738678,1103.754883 525.563965,1103.612671 543.387451,1103.613892 
	C555.091431,1103.614746 562.188782,1096.579468 562.250549,1084.737183 
	C562.349670,1065.748047 562.830688,1046.744019 562.232605,1027.775146 
	C561.917358,1017.775085 563.687988,1010.265808 572.422302,1003.766296 
	C582.300171,996.415833 581.305298,986.525513 571.707214,978.700928 
	C570.161194,977.440613 568.630371,976.145935 566.982178,975.030029 
	C563.538086,972.698242 562.112854,969.739136 562.164124,965.387878 
	C562.413330,944.235596 562.349915,923.079285 562.322266,901.924561 
	C562.318848,899.278748 562.038269,896.605286 561.597656,893.993347 
	C560.416016,886.988464 556.522339,883.481018 549.376465,883.416199 
	C531.888062,883.257385 514.397583,883.253296 496.908539,883.328369 
	C495.025909,883.336426 492.922852,883.896729 491.310760,884.854858 
	C487.199615,887.298096 485.998627,891.678467 487.500488,897.147583 
	C488.994476,902.588074 493.635651,906.475220 499.035553,906.497009 
	C510.029144,906.541443 521.027710,906.619141 532.015015,906.330994 
	C536.634277,906.209900 538.526245,907.436523 538.472412,912.448242 
	C538.273438,930.934570 538.634827,949.426575 538.469238,967.913635 
	C538.401917,975.428650 540.376282,981.308594 546.830017,985.936218 
	C554.191406,991.214722 554.034546,991.767883 546.689575,997.174744 
	C540.471863,1001.751831 537.324951,1007.171753 537.540649,1015.303162 
	C538.057312,1034.779663 537.677673,1054.278320 537.859802,1073.766235 
	C537.900208,1078.091309 536.379150,1079.663330 532.038452,1079.611206 
	C518.548157,1079.449219 505.053619,1079.656250 491.562347,1079.537598 
	C489.524200,1079.519531 487.226471,1078.964233 485.508789,1077.908936 
	C478.996857,1073.907715 472.674072,1069.598755 465.643616,1065.055786 
M1504.213745,997.227417 
	C1502.498901,1002.774719 1500.783936,1008.322021 1499.069092,1013.869263 
	C1498.574097,1013.798157 1498.079102,1013.726990 1497.584106,1013.655823 
	C1497.222534,1012.485229 1496.823975,1011.324707 1496.505127,1010.142578 
	C1492.215698,994.235229 1487.983521,978.312195 1483.582886,962.435791 
	C1483.162109,960.917786 1481.778564,958.571716 1480.723022,958.505432 
	C1474.687500,958.126465 1468.615845,958.321350 1462.103394,958.321350 
	C1463.175293,962.330627 1463.885620,965.383911 1464.807495,968.371826 
	C1471.818481,991.094604 1478.825806,1013.819031 1486.025513,1036.482178 
	C1486.450073,1037.818970 1488.473267,1039.444092 1489.849854,1039.540039 
	C1494.986694,1039.898193 1500.175659,1039.857788 1505.318481,1039.540161 
	C1506.595093,1039.461304 1508.495728,1038.010864 1508.885254,1036.797729 
	C1513.461182,1022.543396 1517.794556,1008.211243 1522.222534,993.909058 
	C1522.633667,992.581238 1523.254272,991.318237 1523.777588,990.025146 
	C1524.259277,989.997620 1524.741089,989.970093 1525.222778,989.942505 
	C1526.172607,992.796753 1527.214966,995.624023 1528.056030,998.509949 
	C1531.777222,1011.278320 1535.368530,1024.085571 1539.242432,1036.807007 
	C1539.611572,1038.018799 1541.579712,1039.477417 1542.873779,1039.546875 
	C1548.490234,1039.847778 1554.131836,1039.675903 1559.974609,1039.675903 
	C1568.812134,1012.091980 1577.443237,985.152588 1586.178467,957.887878 
	C1580.608398,957.887878 1575.123413,957.710083 1569.665527,958.016541 
	C1568.349731,958.090393 1566.379883,959.520935 1565.973022,960.746521 
	C1562.313599,971.772034 1558.927734,982.888611 1555.478516,993.983704 
	C1553.513550,1000.304199 1551.580078,1006.634460 1549.632446,1012.960327 
	C1544.498169,998.746399 1540.315308,984.794006 1536.301758,970.793091 
	C1532.568237,957.769348 1532.647827,957.811951 1518.952881,957.862671 
	C1516.243530,957.872681 1514.906616,958.384033 1514.139648,961.382141 
	C1511.133667,973.133057 1507.727173,984.781433 1504.213745,997.227417 
M1774.992554,951.499329 
	C1774.992554,943.404846 1774.992554,935.310425 1774.992554,927.100037 
	C1768.029541,927.100037 1761.628052,927.100037 1754.754028,927.100037 
	C1754.754028,933.889832 1754.754028,940.347229 1754.754028,946.804565 
	C1754.754028,953.141968 1754.754028,959.479370 1754.754028,966.553467 
	C1731.229248,952.595947 1716.181274,952.982971 1700.979248,967.096436 
	C1688.053223,979.096802 1683.478394,1003.377808 1693.169067,1019.296997 
	C1709.078125,1045.431152 1730.520386,1048.054688 1755.841797,1029.578979 
	C1755.688232,1032.622681 1755.329224,1034.396973 1755.605835,1036.066040 
	C1755.802734,1037.254883 1756.811890,1039.231934 1757.532104,1039.265015 
	C1763.256226,1039.529297 1768.997803,1039.412231 1774.989746,1039.412231 
	C1774.989746,1010.080750 1774.989746,981.290100 1774.992554,951.499329 
M861.189575,973.597595 
	C851.848206,989.238647 852.332458,1011.679626 862.366333,1024.591919 
	C877.254883,1043.751587 903.159241,1046.003174 916.917725,1032.393799 
	C917.870972,1031.450806 919.274109,1030.962769 921.113403,1029.885010 
	C921.399841,1033.597534 921.620422,1036.456299 921.855530,1039.503174 
	C928.440002,1039.503174 934.517944,1039.503174 940.899841,1039.503174 
	C940.899841,1001.917847 940.899841,964.666138 940.899841,927.095215 
	C934.249695,927.095215 927.684631,927.095215 920.630127,927.095215 
	C920.630127,940.216431 920.630127,953.065613 920.630127,966.912354 
	C910.844543,959.508667 901.112976,954.036743 889.292542,956.090393 
	C877.961365,958.059082 868.056030,962.836548 861.189575,973.597595 
M787.721252,1035.553833 
	C796.770386,1040.451782 806.056763,1043.292603 816.428833,1039.852661 
	C850.392822,1028.588257 851.037964,990.699951 836.850952,971.299683 
	C827.626709,958.686035 811.997742,952.727539 797.655334,957.336243 
	C791.526001,959.305847 785.934265,962.948425 779.423523,966.164062 
	C779.423523,953.241882 779.423523,940.237427 779.423523,927.264526 
	C772.140381,927.264526 765.720642,927.264526 759.311646,927.264526 
	C759.311646,964.769897 759.311646,1001.971802 759.311646,1039.522949 
	C766.138611,1039.522949 772.547363,1039.522949 779.118408,1039.522949 
	C779.486206,1036.648804 779.843506,1033.856567 780.320618,1030.128174 
	C783.194153,1032.255981 785.150635,1033.704712 787.721252,1035.553833 
M726.278687,980.917480 
	C720.223999,965.598267 714.238586,950.250732 707.997070,935.007996 
	C707.432251,933.628662 705.260925,932.128418 703.762390,932.047974 
	C697.953857,931.735962 692.101501,931.767883 686.298645,932.160583 
	C684.898315,932.255310 682.964172,933.955994 682.390869,935.370300 
	C672.224487,960.450745 662.252625,985.609985 652.188538,1010.732056 
	C648.381409,1020.235291 644.447571,1029.687744 640.261475,1039.921387 
	C647.351562,1039.921387 653.471802,1039.778442 659.579773,1039.988770 
	C662.191833,1040.078613 663.423401,1039.270874 664.283447,1036.784546 
	C666.129211,1031.448975 668.240845,1026.197510 670.469177,1021.008484 
	C670.934937,1019.923828 672.362183,1018.526184 673.367920,1018.508728 
	C687.517395,1018.262329 701.671509,1018.141724 715.821472,1018.285034 
	C717.205261,1018.299072 719.247986,1019.977539 719.820251,1021.364075 
	C721.846313,1026.273193 723.296265,1031.416870 725.133789,1036.409546 
	C725.536011,1037.502319 726.610291,1039.138916 727.420166,1039.165771 
	C734.142761,1039.388428 740.875916,1039.291992 748.187012,1039.291992 
	C740.904907,1019.852539 733.744263,1000.737427 726.278687,980.917480 
M1451.696655,1003.531128 
	C1442.807739,980.565674 1433.951660,957.587280 1424.929688,934.674133 
	C1424.492554,933.564087 1422.622070,932.382996 1421.376587,932.334900 
	C1415.555054,932.109924 1409.703369,932.534119 1403.893066,932.197510 
	C1400.305786,931.989685 1399.143311,933.517456 1397.977661,936.591980 
	C1388.258179,962.229004 1378.397705,987.813293 1368.428711,1013.354553 
	C1365.067993,1021.965332 1361.272461,1030.406494 1357.349121,1039.698608 
	C1364.695190,1039.698608 1371.293701,1039.816772 1377.878540,1039.570557 
	C1378.863525,1039.533691 1380.179932,1037.953857 1380.666870,1036.801880 
	C1382.739502,1031.898071 1384.639282,1026.915894 1386.435913,1021.902832 
	C1387.386108,1019.251404 1388.713501,1017.909790 1391.845337,1017.966370 
	C1405.173706,1018.207336 1418.507324,1018.228333 1431.838623,1018.196533 
	C1434.472900,1018.190247 1435.411621,1019.145569 1436.239014,1021.684692 
	C1438.037354,1027.203491 1440.457642,1032.523804 1442.736084,1037.877441 
	C1443.074341,1038.672363 1444.012207,1039.763550 1444.691284,1039.776978 
	C1451.745239,1039.916260 1458.803101,1039.862671 1466.254639,1039.862671 
	C1461.132080,1027.078369 1456.557983,1015.663025 1451.696655,1003.531128 
M1234.150146,995.500977 
	C1234.154663,1008.822632 1234.094238,1022.145081 1234.260376,1035.464722 
	C1234.277832,1036.853394 1235.573608,1039.376099 1236.385254,1039.421509 
	C1242.430908,1039.759521 1248.504150,1039.604980 1255.040649,1039.604980 
	C1255.040649,1023.378784 1254.782227,1007.898071 1255.125244,992.430664 
	C1255.384521,980.733887 1262.764893,973.911133 1274.192505,973.843750 
	C1285.636719,973.776245 1292.130981,980.002502 1292.850708,992.037231 
	C1293.138428,996.849976 1292.960327,1001.691467 1292.965210,1006.519897 
	C1292.975952,1017.305786 1292.968506,1028.091675 1292.968506,1039.324097 
	C1300.024658,1039.324097 1306.686279,1039.324097 1313.567017,1039.324097 
	C1313.567017,1035.445801 1313.585083,1031.961548 1313.563721,1028.477417 
	C1313.478027,1014.492004 1313.719971,1000.494080 1313.202271,986.524353 
	C1312.520386,968.124451 1299.998901,956.552734 1281.572144,956.151978 
	C1271.355713,955.929810 1262.933350,959.783142 1254.881714,967.261719 
	C1254.881714,953.154846 1254.881714,940.013977 1254.881714,927.084229 
	C1247.746826,927.084229 1241.170898,927.084229 1234.155029,927.084229 
	C1234.155029,949.912354 1234.155029,972.206604 1234.150146,995.500977 
M1144.214111,1032.192627 
	C1161.254395,1045.299927 1178.007080,1043.019043 1195.097534,1029.408569 
	C1195.097534,1032.860352 1194.676270,1034.638550 1195.219360,1036.044312 
	C1195.734131,1037.376953 1197.203491,1039.208984 1198.350098,1039.281006 
	C1203.760376,1039.621460 1209.203979,1039.432861 1214.356934,1039.432861 
	C1214.356934,1012.164734 1214.356934,985.322266 1214.356934,958.391479 
	C1207.447144,958.391479 1201.213745,958.391479 1195.011841,958.391479 
	C1194.714478,961.335938 1194.451050,963.945435 1194.121094,967.212097 
	C1192.496704,965.973022 1191.723145,965.371460 1190.937744,964.785706 
	C1181.401245,957.672485 1170.926270,954.154785 1159.066040,957.246582 
	C1144.117798,961.143677 1134.418701,970.725342 1130.553833,985.652344 
	C1125.946777,1003.446960 1128.933716,1019.335449 1144.214111,1032.192627 
M1017.945312,1035.837402 
	C1018.869507,1037.132324 1019.724670,1039.481079 1020.729370,1039.546997 
	C1026.300293,1039.912109 1031.907471,1039.722046 1037.867676,1039.722046 
	C1037.867676,1032.533203 1037.837280,1026.054077 1037.873413,1019.575195 
	C1037.979492,1000.583557 1038.167358,981.592041 1038.128296,962.600891 
	C1038.125244,961.099670 1036.704956,958.365601 1035.799194,958.303284 
	C1030.044067,957.907593 1024.248291,958.102112 1017.944397,958.102112 
	C1017.944397,965.121887 1018.019653,971.743958 1017.926758,978.363647 
	C1017.789062,988.182312 1018.083130,998.050659 1017.172058,1007.802490 
	C1016.249207,1017.679993 1008.274353,1023.671021 998.429810,1023.180969 
	C985.827881,1022.553650 980.074219,1016.812073 979.427185,1004.131592 
	C979.299927,1001.639282 979.384277,999.135803 979.383728,996.637512 
	C979.380981,983.851135 979.382446,971.064697 979.382446,958.182739 
	C972.619812,958.182739 966.062134,958.182739 959.634644,958.182739 
	C959.634644,976.348816 959.180298,994.136780 959.787659,1011.888306 
	C960.222656,1024.600098 967.018311,1034.040283 978.865234,1038.828735 
	C990.971619,1043.721924 1002.681396,1042.771729 1012.980713,1033.795776 
	C1014.167236,1032.761597 1015.448181,1031.836060 1017.501953,1030.216309 
	C1017.694641,1032.521118 1017.796143,1033.735107 1017.945312,1035.837402 
M438.857544,988.811584 
	C437.387726,987.719971 435.865540,986.691711 434.456848,985.526184 
	C426.577209,979.007141 417.831055,975.747009 407.335724,976.558411 
	C397.229645,977.339844 387.037292,977.288086 376.892456,977.095459 
	C374.236359,977.045044 371.161469,975.660034 369.071991,973.929993 
	C364.443390,970.097778 359.496063,967.870605 353.522522,968.938965 
	C346.072784,970.271545 339.917328,977.235901 338.727142,985.241211 
	C337.634491,992.590515 341.689819,1000.478760 348.405365,1004.067078 
	C355.795898,1008.016052 362.048523,1006.840332 369.049530,1001.021545 
	C371.268951,999.176880 374.544128,997.799500 377.401733,997.671570 
	C387.213226,997.232544 397.062408,997.675842 406.879669,997.310852 
	C412.215790,997.112488 416.530273,998.901978 420.829895,1001.706543 
	C439.078033,1013.609558 457.332703,1025.507812 475.810822,1037.046265 
	C478.247192,1038.567627 482.772766,1039.353394 484.934875,1038.090332 
	C488.152008,1036.210938 491.172546,1032.552734 492.359406,1029.009399 
	C493.805450,1024.692505 490.619537,1021.182251 486.835938,1018.812744 
	C471.055359,1008.929871 455.265106,999.062378 438.857544,988.811584 
M394.491760,917.871521 
	C388.365051,924.274963 394.502167,935.738953 402.893799,935.874817 
	C406.049774,935.925842 409.259644,935.891968 412.341095,936.460144 
	C415.994781,937.133850 419.904633,937.766235 423.057678,939.554871 
	C432.597565,944.966675 441.986938,950.684814 451.130798,956.742737 
	C461.093506,963.343323 471.018585,970.076599 480.366241,977.499817 
	C485.523010,981.594849 490.635956,983.943665 496.796143,981.867920 
	C503.964752,979.452454 509.965485,975.312866 511.810883,967.224792 
	C512.023010,966.295105 511.913177,965.262512 511.805847,964.293884 
	C510.502167,952.529907 497.723297,942.203125 484.959137,950.049377 
	C482.286285,951.692383 479.946716,951.951294 477.129730,950.108215 
	C465.021088,942.186218 452.033173,935.390625 440.822205,926.373596 
	C428.886139,916.773132 416.135681,913.611389 401.546753,915.457581 
	C399.325623,915.738708 397.191132,916.704651 394.491760,917.871521 
M1116.271118,985.500000 
	C1116.271118,965.811279 1116.271118,946.122498 1116.271118,926.471924 
	C1109.066650,926.471924 1102.481812,926.471924 1095.978394,926.471924 
	C1095.978394,964.382263 1095.978394,1001.996277 1095.978394,1039.601562 
	C1102.921631,1039.601562 1109.345703,1039.601562 1116.267700,1039.601562 
	C1116.267700,1021.711243 1116.267700,1004.105591 1116.271118,985.500000 
M1077.105591,983.800659 
	C1077.105591,964.744446 1077.105591,945.688293 1077.105591,926.740967 
	C1069.890137,926.740967 1063.333008,926.740967 1056.979492,926.740967 
	C1056.979492,964.499756 1056.979492,1001.862976 1056.979492,1039.366943 
	C1063.827026,1039.366943 1070.247314,1039.366943 1077.108276,1039.366943 
	C1077.108276,1020.971436 1077.108276,1002.858643 1077.105591,983.800659 
z"/>
<path fill="#2FD7D6" opacity="1.000000" stroke="none" 
	d="
M465.962067,1065.230347 
	C472.674072,1069.598755 478.996857,1073.907715 485.508789,1077.908936 
	C487.226471,1078.964233 489.524200,1079.519531 491.562347,1079.537598 
	C505.053619,1079.656250 518.548157,1079.449219 532.038452,1079.611206 
	C536.379150,1079.663330 537.900208,1078.091309 537.859802,1073.766235 
	C537.677673,1054.278320 538.057312,1034.779663 537.540649,1015.303162 
	C537.324951,1007.171753 540.471863,1001.751831 546.689575,997.174744 
	C554.034546,991.767883 554.191406,991.214722 546.830017,985.936218 
	C540.376282,981.308594 538.401917,975.428650 538.469238,967.913635 
	C538.634827,949.426575 538.273438,930.934570 538.472412,912.448242 
	C538.526245,907.436523 536.634277,906.209900 532.015015,906.330994 
	C521.027710,906.619141 510.029144,906.541443 499.035553,906.497009 
	C493.635651,906.475220 488.994476,902.588074 487.500488,897.147583 
	C485.998627,891.678467 487.199615,887.298096 491.310760,884.854858 
	C492.922852,883.896729 495.025909,883.336426 496.908539,883.328369 
	C514.397583,883.253296 531.888062,883.257385 549.376465,883.416199 
	C556.522339,883.481018 560.416016,886.988464 561.597656,893.993347 
	C562.038269,896.605286 562.318848,899.278748 562.322266,901.924561 
	C562.349915,923.079285 562.413330,944.235596 562.164124,965.387878 
	C562.112854,969.739136 563.538086,972.698242 566.982178,975.030029 
	C568.630371,976.145935 570.161194,977.440613 571.707214,978.700928 
	C581.305298,986.525513 582.300171,996.415833 572.422302,1003.766296 
	C563.687988,1010.265808 561.917358,1017.775085 562.232605,1027.775146 
	C562.830688,1046.744019 562.349670,1065.748047 562.250549,1084.737183 
	C562.188782,1096.579468 555.091431,1103.614746 543.387451,1103.613892 
	C525.563965,1103.612671 507.738678,1103.754883 489.918518,1103.514526 
	C486.395264,1103.467041 482.340210,1102.832642 479.464569,1101.001709 
	C451.961334,1083.490112 424.619049,1065.723755 397.334808,1047.871338 
	C392.224731,1044.527710 391.016357,1037.932251 393.998627,1033.375854 
	C397.192108,1028.496826 402.619629,1027.366821 408.497009,1030.400269 
	C409.824829,1031.085571 411.100891,1031.877197 412.370087,1032.669067 
	C423.795013,1039.797241 435.169037,1047.008301 446.650818,1054.043579 
	C452.888947,1057.865845 459.306793,1061.394653 465.962067,1065.230347 
z"/>
<path fill="#0869FA" opacity="1.000000" stroke="none" 
	d="
M310.492401,1066.130737 
	C310.526001,1066.530029 310.559631,1066.929321 310.336884,1067.906860 
	C309.880066,1069.638672 309.679596,1070.792114 309.479156,1071.945679 
	C308.921600,1069.369263 309.103546,1066.865723 308.879181,1064.399292 
	C308.538177,1060.650024 305.431396,1059.230835 302.037689,1060.677124 
	C299.990784,1061.549561 297.571014,1061.502930 295.415375,1062.177734 
	C293.605103,1062.744385 290.502014,1063.646606 290.428925,1064.590576 
	C289.846161,1072.117432 289.889191,1079.691162 289.640320,1087.247070 
	C289.589020,1088.804688 289.119263,1090.348633 288.842346,1091.898804 
	C288.416595,1089.134888 287.651642,1086.375000 287.618866,1083.606445 
	C287.362671,1061.958740 287.124664,1040.309204 287.174835,1018.660889 
	C287.187195,1013.322815 285.614838,1009.855713 280.975800,1006.723511 
	C275.654205,1003.130310 269.653381,999.418701 269.743011,991.369934 
	C269.790558,987.100403 270.631897,983.485107 274.127136,980.781067 
	C274.913971,980.172241 275.490448,979.214355 276.347992,978.786072 
	C286.762970,973.584839 287.984497,964.831970 287.506256,954.202515 
	C286.676239,935.753784 287.178131,917.242249 287.236542,898.757446 
	C287.267883,888.829285 292.002869,884.046509 301.973602,883.949463 
	C317.793610,883.795471 333.615601,883.783203 349.436523,883.817017 
	C356.989166,883.833130 361.514191,888.019592 361.552429,894.707214 
	C361.593536,901.888855 356.815643,906.977417 349.428619,907.076782 
	C338.606567,907.222473 327.776611,907.215149 316.957794,906.951904 
	C312.497070,906.843506 310.880524,908.094971 310.912231,912.870117 
	C311.030487,930.684998 310.408081,948.506165 310.622345,966.318359 
	C310.723114,974.694214 307.279999,980.467651 300.868073,985.315002 
	C292.402100,991.715149 292.582214,991.802307 300.876465,998.740906 
	C303.926910,1001.292725 306.619843,1004.271912 309.624268,1007.665771 
	C310.053986,1009.175903 310.335297,1010.076477 310.616608,1010.976990 
	C310.669586,1012.080017 310.722565,1013.182983 310.495850,1015.002930 
	C310.379578,1018.784546 310.543060,1021.849182 310.706512,1024.913818 
	C310.692963,1037.925537 310.679413,1050.937378 310.443756,1064.526855 
	C310.179901,1065.230347 310.072144,1065.382324 310.109528,1065.476685 
	C310.201599,1065.708862 310.360413,1065.914429 310.492401,1066.130737 
z"/>
<path fill="#081537" opacity="1.000000" stroke="none" 
	d="
M1504.341553,996.847656 
	C1507.727173,984.781433 1511.133667,973.133057 1514.139648,961.382141 
	C1514.906616,958.384033 1516.243530,957.872681 1518.952881,957.862671 
	C1532.647827,957.811951 1532.568237,957.769348 1536.301758,970.793091 
	C1540.315308,984.794006 1544.498169,998.746399 1549.632446,1012.960327 
	C1551.580078,1006.634460 1553.513550,1000.304199 1555.478516,993.983704 
	C1558.927734,982.888611 1562.313599,971.772034 1565.973022,960.746521 
	C1566.379883,959.520935 1568.349731,958.090393 1569.665527,958.016541 
	C1575.123413,957.710083 1580.608398,957.887878 1586.178467,957.887878 
	C1577.443237,985.152588 1568.812134,1012.091980 1559.974609,1039.675903 
	C1554.131836,1039.675903 1548.490234,1039.847778 1542.873779,1039.546875 
	C1541.579712,1039.477417 1539.611572,1038.018799 1539.242432,1036.807007 
	C1535.368530,1024.085571 1531.777222,1011.278320 1528.056030,998.509949 
	C1527.214966,995.624023 1526.172607,992.796753 1525.222778,989.942505 
	C1524.741089,989.970093 1524.259277,989.997620 1523.777588,990.025146 
	C1523.254272,991.318237 1522.633667,992.581238 1522.222534,993.909058 
	C1517.794556,1008.211243 1513.461182,1022.543396 1508.885254,1036.797729 
	C1508.495728,1038.010864 1506.595093,1039.461304 1505.318481,1039.540161 
	C1500.175659,1039.857788 1494.986694,1039.898193 1489.849854,1039.540039 
	C1488.473267,1039.444092 1486.450073,1037.818970 1486.025513,1036.482178 
	C1478.825806,1013.819031 1471.818481,991.094604 1464.807495,968.371826 
	C1463.885620,965.383911 1463.175293,962.330627 1462.103394,958.321350 
	C1468.615845,958.321350 1474.687500,958.126465 1480.723022,958.505432 
	C1481.778564,958.571716 1483.162109,960.917786 1483.582886,962.435791 
	C1487.983521,978.312195 1492.215698,994.235229 1496.505127,1010.142578 
	C1496.823975,1011.324707 1497.222534,1012.485229 1497.584106,1013.655823 
	C1498.079102,1013.726990 1498.574097,1013.798157 1499.069092,1013.869263 
	C1500.783936,1008.322021 1502.498901,1002.774719 1504.341553,996.847656 
z"/>
<path fill="#081537" opacity="1.000000" stroke="none" 
	d="
M1774.991211,951.999390 
	C1774.989746,981.290100 1774.989746,1010.080750 1774.989746,1039.412231 
	C1768.997803,1039.412231 1763.256226,1039.529297 1757.532104,1039.265015 
	C1756.811890,1039.231934 1755.802734,1037.254883 1755.605835,1036.066040 
	C1755.329224,1034.396973 1755.688232,1032.622681 1755.841797,1029.578979 
	C1730.520386,1048.054688 1709.078125,1045.431152 1693.169067,1019.296997 
	C1683.478394,1003.377808 1688.053223,979.096802 1700.979248,967.096436 
	C1716.181274,952.982971 1731.229248,952.595947 1754.754028,966.553467 
	C1754.754028,959.479370 1754.754028,953.141968 1754.754028,946.804565 
	C1754.754028,940.347229 1754.754028,933.889832 1754.754028,927.100037 
	C1761.628052,927.100037 1768.029541,927.100037 1774.992554,927.100037 
	C1774.992554,935.310425 1774.992554,943.404846 1774.991211,951.999390 
M1734.251709,974.842346 
	C1720.943359,974.395691 1711.547729,981.392578 1709.198608,993.499329 
	C1706.918213,1005.251465 1713.918579,1018.790588 1724.032471,1022.189392 
	C1737.208252,1026.617065 1750.488159,1019.462463 1753.900146,1005.952576 
	C1757.852539,990.302856 1748.771362,975.830811 1734.251709,974.842346 
z"/>
<path fill="#081537" opacity="1.000000" stroke="none" 
	d="
M861.390015,973.300903 
	C868.056030,962.836548 877.961365,958.059082 889.292542,956.090393 
	C901.112976,954.036743 910.844543,959.508667 920.630127,966.912354 
	C920.630127,953.065613 920.630127,940.216431 920.630127,927.095215 
	C927.684631,927.095215 934.249695,927.095215 940.899841,927.095215 
	C940.899841,964.666138 940.899841,1001.917847 940.899841,1039.503174 
	C934.517944,1039.503174 928.440002,1039.503174 921.855530,1039.503174 
	C921.620422,1036.456299 921.399841,1033.597534 921.113403,1029.885010 
	C919.274109,1030.962769 917.870972,1031.450806 916.917725,1032.393799 
	C903.159241,1046.003174 877.254883,1043.751587 862.366333,1024.591919 
	C852.332458,1011.679626 851.848206,989.238647 861.390015,973.300903 
M911.663391,1019.306091 
	C913.136353,1017.721558 914.730103,1016.232056 916.062683,1014.537170 
	C924.769348,1003.463379 921.785034,984.888062 910.122131,977.252319 
	C897.521606,969.002747 881.088074,975.657715 875.864929,991.125244 
	C872.674988,1000.571716 876.642700,1013.291626 884.712036,1019.487488 
	C891.207764,1024.474976 903.491882,1024.623291 911.663391,1019.306091 
z"/>
<path fill="#081537" opacity="1.000000" stroke="none" 
	d="
M787.414185,1035.353638 
	C785.150635,1033.704712 783.194153,1032.255981 780.320618,1030.128174 
	C779.843506,1033.856567 779.486206,1036.648804 779.118408,1039.522949 
	C772.547363,1039.522949 766.138611,1039.522949 759.311646,1039.522949 
	C759.311646,1001.971802 759.311646,964.769897 759.311646,927.264526 
	C765.720642,927.264526 772.140381,927.264526 779.423523,927.264526 
	C779.423523,940.237427 779.423523,953.241882 779.423523,966.164062 
	C785.934265,962.948425 791.526001,959.305847 797.655334,957.336243 
	C811.997742,952.727539 827.626709,958.686035 836.850952,971.299683 
	C851.037964,990.699951 850.392822,1028.588257 816.428833,1039.852661 
	C806.056763,1043.292603 796.770386,1040.451782 787.414185,1035.353638 
M783.390503,1013.965393 
	C786.592346,1016.720032 789.387756,1020.960693 793.067749,1021.967102 
	C807.505859,1025.915771 820.610291,1021.350098 824.517029,1004.752991 
	C826.821899,994.961487 823.674255,986.295410 815.922668,979.652405 
	C808.527283,973.314575 800.105164,972.837219 791.639709,976.758484 
	C782.770691,980.866760 778.358215,988.456116 779.007080,998.101929 
	C779.353088,1003.245361 781.602600,1008.260803 783.390503,1013.965393 
z"/>
<path fill="#081537" opacity="1.000000" stroke="none" 
	d="
M726.431152,981.269897 
	C733.744263,1000.737427 740.904907,1019.852539 748.187012,1039.291992 
	C740.875916,1039.291992 734.142761,1039.388428 727.420166,1039.165771 
	C726.610291,1039.138916 725.536011,1037.502319 725.133789,1036.409546 
	C723.296265,1031.416870 721.846313,1026.273193 719.820251,1021.364075 
	C719.247986,1019.977539 717.205261,1018.299072 715.821472,1018.285034 
	C701.671509,1018.141724 687.517395,1018.262329 673.367920,1018.508728 
	C672.362183,1018.526184 670.934937,1019.923828 670.469177,1021.008484 
	C668.240845,1026.197510 666.129211,1031.448975 664.283447,1036.784546 
	C663.423401,1039.270874 662.191833,1040.078613 659.579773,1039.988770 
	C653.471802,1039.778442 647.351562,1039.921387 640.261475,1039.921387 
	C644.447571,1029.687744 648.381409,1020.235291 652.188538,1010.732056 
	C662.252625,985.609985 672.224487,960.450745 682.390869,935.370300 
	C682.964172,933.955994 684.898315,932.255310 686.298645,932.160583 
	C692.101501,931.767883 697.953857,931.735962 703.762390,932.047974 
	C705.260925,932.128418 707.432251,933.628662 707.997070,935.007996 
	C714.238586,950.250732 720.223999,965.598267 726.431152,981.269897 
M683.473511,986.014587 
	C681.693115,990.947083 679.912781,995.879517 677.991272,1001.203125 
	C689.718994,1001.203125 700.801453,1001.203125 712.264404,1001.203125 
	C706.614502,986.273315 701.227417,972.038208 695.840393,957.803040 
	C695.447571,957.909363 695.054810,958.015686 694.662048,958.122009 
	C691.033020,967.180603 687.404053,976.239136 683.473511,986.014587 
z"/>
<path fill="#081537" opacity="1.000000" stroke="none" 
	d="
M1451.840332,1003.889404 
	C1456.557983,1015.663025 1461.132080,1027.078369 1466.254639,1039.862671 
	C1458.803101,1039.862671 1451.745239,1039.916260 1444.691284,1039.776978 
	C1444.012207,1039.763550 1443.074341,1038.672363 1442.736084,1037.877441 
	C1440.457642,1032.523804 1438.037354,1027.203491 1436.239014,1021.684692 
	C1435.411621,1019.145569 1434.472900,1018.190247 1431.838623,1018.196533 
	C1418.507324,1018.228333 1405.173706,1018.207336 1391.845337,1017.966370 
	C1388.713501,1017.909790 1387.386108,1019.251404 1386.435913,1021.902832 
	C1384.639282,1026.915894 1382.739502,1031.898071 1380.666870,1036.801880 
	C1380.179932,1037.953857 1378.863525,1039.533691 1377.878540,1039.570557 
	C1371.293701,1039.816772 1364.695190,1039.698608 1357.349121,1039.698608 
	C1361.272461,1030.406494 1365.067993,1021.965332 1368.428711,1013.354553 
	C1378.397705,987.813293 1388.258179,962.229004 1397.977661,936.591980 
	C1399.143311,933.517456 1400.305786,931.989685 1403.893066,932.197510 
	C1409.703369,932.534119 1415.555054,932.109924 1421.376587,932.334900 
	C1422.622070,932.382996 1424.492554,933.564087 1424.929688,934.674133 
	C1433.951660,957.587280 1442.807739,980.565674 1451.840332,1003.889404 
M1426.452881,995.137878 
	C1421.637939,982.429016 1416.822876,969.720154 1412.007935,957.011353 
	C1411.562378,957.082031 1411.116821,957.152771 1410.671265,957.223511 
	C1405.550537,971.777283 1400.429810,986.331116 1395.211792,1001.161255 
	C1406.669312,1001.161255 1417.464844,1001.161255 1428.643677,1001.161255 
	C1427.846924,998.993835 1427.279053,997.448608 1426.452881,995.137878 
z"/>
<path fill="#081537" opacity="1.000000" stroke="none" 
	d="
M1234.152588,995.000916 
	C1234.155029,972.206604 1234.155029,949.912354 1234.155029,927.084229 
	C1241.170898,927.084229 1247.746826,927.084229 1254.881714,927.084229 
	C1254.881714,940.013977 1254.881714,953.154846 1254.881714,967.261719 
	C1262.933350,959.783142 1271.355713,955.929810 1281.572144,956.151978 
	C1299.998901,956.552734 1312.520386,968.124451 1313.202271,986.524353 
	C1313.719971,1000.494080 1313.478027,1014.492004 1313.563721,1028.477417 
	C1313.585083,1031.961548 1313.567017,1035.445801 1313.567017,1039.324097 
	C1306.686279,1039.324097 1300.024658,1039.324097 1292.968506,1039.324097 
	C1292.968506,1028.091675 1292.975952,1017.305786 1292.965210,1006.519897 
	C1292.960327,1001.691467 1293.138428,996.849976 1292.850708,992.037231 
	C1292.130981,980.002502 1285.636719,973.776245 1274.192505,973.843750 
	C1262.764893,973.911133 1255.384521,980.733887 1255.125244,992.430664 
	C1254.782227,1007.898071 1255.040649,1023.378784 1255.040649,1039.604980 
	C1248.504150,1039.604980 1242.430908,1039.759521 1236.385254,1039.421509 
	C1235.573608,1039.376099 1234.277832,1036.853394 1234.260376,1035.464722 
	C1234.094238,1022.145081 1234.154663,1008.822632 1234.152588,995.000916 
z"/>
<path fill="#081537" opacity="1.000000" stroke="none" 
	d="
M1143.937378,1031.975098 
	C1128.933716,1019.335449 1125.946777,1003.446960 1130.553833,985.652344 
	C1134.418701,970.725342 1144.117798,961.143677 1159.066040,957.246582 
	C1170.926270,954.154785 1181.401245,957.672485 1190.937744,964.785706 
	C1191.723145,965.371460 1192.496704,965.973022 1194.121094,967.212097 
	C1194.451050,963.945435 1194.714478,961.335938 1195.011841,958.391479 
	C1201.213745,958.391479 1207.447144,958.391479 1214.356934,958.391479 
	C1214.356934,985.322266 1214.356934,1012.164734 1214.356934,1039.432861 
	C1209.203979,1039.432861 1203.760376,1039.621460 1198.350098,1039.281006 
	C1197.203491,1039.208984 1195.734131,1037.376953 1195.219360,1036.044312 
	C1194.676270,1034.638550 1195.097534,1032.860352 1195.097534,1029.408569 
	C1178.007080,1043.019043 1161.254395,1045.299927 1143.937378,1031.975098 
M1164.598145,975.844849 
	C1163.246094,976.484131 1161.830322,977.016541 1160.552490,977.779907 
	C1151.396240,983.249573 1147.759277,991.622864 1148.906494,1001.880798 
	C1149.967163,1011.364380 1155.163452,1018.362427 1164.186768,1021.760742 
	C1173.424927,1025.239990 1184.319702,1021.714783 1190.100952,1013.991272 
	C1196.107422,1005.966797 1196.257812,993.185669 1190.449219,984.369324 
	C1184.458618,975.276672 1176.840942,972.595642 1164.598145,975.844849 
z"/>
<path fill="#081537" opacity="1.000000" stroke="none" 
	d="
M1654.691406,964.467957 
	C1654.838501,962.504150 1654.985596,960.540283 1655.155029,958.278503 
	C1661.366455,958.278503 1667.447266,958.278503 1674.144287,958.278503 
	C1674.144287,985.483887 1674.144287,1012.513123 1674.144287,1039.638916 
	C1667.946533,1039.638916 1661.701050,1039.638916 1654.902832,1039.638916 
	C1654.902832,1036.360718 1654.902832,1033.493774 1654.902832,1030.626831 
	C1654.634399,1030.170532 1654.365845,1029.714233 1654.097412,1029.257935 
	C1642.287720,1041.744263 1628.382812,1043.366455 1613.583618,1037.785522 
	C1605.296387,1034.660278 1598.802124,1028.796265 1594.433105,1020.944275 
	C1584.099487,1002.372131 1587.952637,978.712280 1603.397583,965.308228 
	C1617.202026,953.327881 1635.980103,953.685913 1653.233887,966.654541 
	C1654.069336,966.196472 1654.380371,965.332214 1654.691406,964.467957 
M1653.518555,1007.695129 
	C1653.900513,1005.906372 1654.388062,1004.132690 1654.647095,1002.326233 
	C1656.253296,991.124512 1650.555420,980.360168 1641.013794,976.469238 
	C1629.537354,971.789246 1615.657715,977.529053 1610.977661,988.890381 
	C1605.580933,1001.991455 1610.881592,1016.512573 1622.846680,1021.405457 
	C1635.074463,1026.405762 1648.112183,1020.858398 1653.518555,1007.695129 
z"/>
<path fill="#081537" opacity="1.000000" stroke="none" 
	d="
M1017.921509,1035.393311 
	C1017.796143,1033.735107 1017.694641,1032.521118 1017.501953,1030.216309 
	C1015.448181,1031.836060 1014.167236,1032.761597 1012.980713,1033.795776 
	C1002.681396,1042.771729 990.971619,1043.721924 978.865234,1038.828735 
	C967.018311,1034.040283 960.222656,1024.600098 959.787659,1011.888306 
	C959.180298,994.136780 959.634644,976.348816 959.634644,958.182739 
	C966.062134,958.182739 972.619812,958.182739 979.382446,958.182739 
	C979.382446,971.064697 979.380981,983.851135 979.383728,996.637512 
	C979.384277,999.135803 979.299927,1001.639282 979.427185,1004.131592 
	C980.074219,1016.812073 985.827881,1022.553650 998.429810,1023.180969 
	C1008.274353,1023.671021 1016.249207,1017.679993 1017.172058,1007.802490 
	C1018.083130,998.050659 1017.789062,988.182312 1017.926758,978.363647 
	C1018.019653,971.743958 1017.944397,965.121887 1017.944397,958.102112 
	C1024.248291,958.102112 1030.044067,957.907593 1035.799194,958.303284 
	C1036.704956,958.365601 1038.125244,961.099670 1038.128296,962.600891 
	C1038.167358,981.592041 1037.979492,1000.583557 1037.873413,1019.575195 
	C1037.837280,1026.054077 1037.867676,1032.533203 1037.867676,1039.722046 
	C1031.907471,1039.722046 1026.300293,1039.912109 1020.729370,1039.546997 
	C1019.724670,1039.481079 1018.869507,1037.132324 1017.921509,1035.393311 
z"/>
<path fill="#2FD7D6" opacity="1.000000" stroke="none" 
	d="
M439.167969,989.000366 
	C455.265106,999.062378 471.055359,1008.929871 486.835938,1018.812744 
	C490.619537,1021.182251 493.805450,1024.692505 492.359406,1029.009399 
	C491.172546,1032.552734 488.152008,1036.210938 484.934875,1038.090332 
	C482.772766,1039.353394 478.247192,1038.567627 475.810822,1037.046265 
	C457.332703,1025.507812 439.078033,1013.609558 420.829895,1001.706543 
	C416.530273,998.901978 412.215790,997.112488 406.879669,997.310852 
	C397.062408,997.675842 387.213226,997.232544 377.401733,997.671570 
	C374.544128,997.799500 371.268951,999.176880 369.049530,1001.021545 
	C362.048523,1006.840332 355.795898,1008.016052 348.405365,1004.067078 
	C341.689819,1000.478760 337.634491,992.590515 338.727142,985.241211 
	C339.917328,977.235901 346.072784,970.271545 353.522522,968.938965 
	C359.496063,967.870605 364.443390,970.097778 369.071991,973.929993 
	C371.161469,975.660034 374.236359,977.045044 376.892456,977.095459 
	C387.037292,977.288086 397.229645,977.339844 407.335724,976.558411 
	C417.831055,975.747009 426.577209,979.007141 434.456848,985.526184 
	C435.865540,986.691711 437.387726,987.719971 439.167969,989.000366 
z"/>
<path fill="#2FD7D6" opacity="1.000000" stroke="none" 
	d="
M394.754150,917.612671 
	C397.191132,916.704651 399.325623,915.738708 401.546753,915.457581 
	C416.135681,913.611389 428.886139,916.773132 440.822205,926.373596 
	C452.033173,935.390625 465.021088,942.186218 477.129730,950.108215 
	C479.946716,951.951294 482.286285,951.692383 484.959137,950.049377 
	C497.723297,942.203125 510.502167,952.529907 511.805847,964.293884 
	C511.913177,965.262512 512.023010,966.295105 511.810883,967.224792 
	C509.965485,975.312866 503.964752,979.452454 496.796143,981.867920 
	C490.635956,983.943665 485.523010,981.594849 480.366241,977.499817 
	C471.018585,970.076599 461.093506,963.343323 451.130798,956.742737 
	C441.986938,950.684814 432.597565,944.966675 423.057678,939.554871 
	C419.904633,937.766235 415.994781,937.133850 412.341095,936.460144 
	C409.259644,935.891968 406.049774,935.925842 402.893799,935.874817 
	C394.502167,935.738953 388.365051,924.274963 394.754150,917.612671 
z"/>
<path fill="#081537" opacity="1.000000" stroke="none" 
	d="
M1116.269409,986.000000 
	C1116.267700,1004.105591 1116.267700,1021.711243 1116.267700,1039.601562 
	C1109.345703,1039.601562 1102.921631,1039.601562 1095.978394,1039.601562 
	C1095.978394,1001.996277 1095.978394,964.382263 1095.978394,926.471924 
	C1102.481812,926.471924 1109.066650,926.471924 1116.271118,926.471924 
	C1116.271118,946.122498 1116.271118,965.811279 1116.269409,986.000000 
z"/>
<path fill="#081537" opacity="1.000000" stroke="none" 
	d="
M1077.106934,984.273254 
	C1077.108276,1002.858643 1077.108276,1020.971436 1077.108276,1039.366943 
	C1070.247314,1039.366943 1063.827026,1039.366943 1056.979492,1039.366943 
	C1056.979492,1001.862976 1056.979492,964.499756 1056.979492,926.740967 
	C1063.333008,926.740967 1069.890137,926.740967 1077.105591,926.740967 
	C1077.105591,945.688293 1077.105591,964.744446 1077.106934,984.273254 
z"/>
<path fill="#2FD7D6" opacity="1.000000" stroke="none" 
	d="
M288.748413,1092.222412 
	C289.119263,1090.348633 289.589020,1088.804688 289.640320,1087.247070 
	C289.889191,1079.691162 289.846161,1072.117432 290.428925,1064.590576 
	C290.502014,1063.646606 293.605103,1062.744385 295.415375,1062.177734 
	C297.571014,1061.502930 299.990784,1061.549561 302.037689,1060.677124 
	C305.431396,1059.230835 308.538177,1060.650024 308.879181,1064.399292 
	C309.103546,1066.865723 308.921600,1069.369263 309.479156,1071.945679 
	C309.679596,1070.792114 309.880066,1069.638672 310.283051,1068.203735 
	C310.610718,1068.401611 310.817902,1068.875488 310.848816,1069.360718 
	C311.484192,1079.327759 311.480225,1079.343872 321.722290,1079.352661 
	C331.371429,1079.360962 341.021240,1079.256470 350.669464,1079.343628 
	C357.113220,1079.401855 361.329498,1083.642822 361.476196,1089.899658 
	C361.643005,1097.016113 357.026886,1103.538208 351.087280,1103.633423 
	C335.476562,1103.883667 319.855591,1103.562866 304.247528,1103.889771 
	C295.860565,1104.065430 291.435547,1099.644897 288.748413,1092.222412 
z"/>
<path fill="#2FD7D6" opacity="1.000000" stroke="none" 
	d="
M310.928864,1024.605591 
	C310.543060,1021.849182 310.379578,1018.784546 310.445801,1015.414978 
	C310.834076,1018.172485 310.992645,1021.234924 310.928864,1024.605591 
z"/>
<path fill="#2FD7D6" opacity="1.000000" stroke="none" 
	d="
M310.750305,1010.674438 
	C310.335297,1010.076477 310.053986,1009.175903 309.762573,1007.988770 
	C310.129639,1008.592041 310.506805,1009.481995 310.750305,1010.674438 
z"/>
<path fill="#2FD7D6" opacity="1.000000" stroke="none" 
	d="
M310.608032,1065.815674 
	C310.360413,1065.914429 310.201599,1065.708862 310.109528,1065.476685 
	C310.072144,1065.382324 310.179901,1065.230347 310.377930,1064.980713 
	C310.597382,1065.071533 310.660492,1065.286133 310.608032,1065.815674 
z"/>
<path fill="#FEFEFE" opacity="1.000000" stroke="none" 
	d="
M1734.698486,974.871216 
	C1748.771362,975.830811 1757.852539,990.302856 1753.900146,1005.952576 
	C1750.488159,1019.462463 1737.208252,1026.617065 1724.032471,1022.189392 
	C1713.918579,1018.790588 1706.918213,1005.251465 1709.198608,993.499329 
	C1711.547729,981.392578 1720.943359,974.395691 1734.698486,974.871216 
z"/>
<path fill="#FEFEFE" opacity="1.000000" stroke="none" 
	d="
M911.387573,1019.556152 
	C903.491882,1024.623291 891.207764,1024.474976 884.712036,1019.487488 
	C876.642700,1013.291626 872.674988,1000.571716 875.864929,991.125244 
	C881.088074,975.657715 897.521606,969.002747 910.122131,977.252319 
	C921.785034,984.888062 924.769348,1003.463379 916.062683,1014.537170 
	C914.730103,1016.232056 913.136353,1017.721558 911.387573,1019.556152 
z"/>
<path fill="#FEFEFE" opacity="1.000000" stroke="none" 
	d="
M783.191772,1013.649658 
	C781.602600,1008.260803 779.353088,1003.245361 779.007080,998.101929 
	C778.358215,988.456116 782.770691,980.866760 791.639709,976.758484 
	C800.105164,972.837219 808.527283,973.314575 815.922668,979.652405 
	C823.674255,986.295410 826.821899,994.961487 824.517029,1004.752991 
	C820.610291,1021.350098 807.505859,1025.915771 793.067749,1021.967102 
	C789.387756,1020.960693 786.592346,1016.720032 783.191772,1013.649658 
z"/>
<path fill="#FEFEFE" opacity="1.000000" stroke="none" 
	d="
M683.624268,985.656128 
	C687.404053,976.239136 691.033020,967.180603 694.662048,958.122009 
	C695.054810,958.015686 695.447571,957.909363 695.840393,957.803040 
	C701.227417,972.038208 706.614502,986.273315 712.264404,1001.203125 
	C700.801453,1001.203125 689.718994,1001.203125 677.991272,1001.203125 
	C679.912781,995.879517 681.693115,990.947083 683.624268,985.656128 
z"/>
<path fill="#FEFEFE" opacity="1.000000" stroke="none" 
	d="
M1426.582031,995.520630 
	C1427.279053,997.448608 1427.846924,998.993835 1428.643677,1001.161255 
	C1417.464844,1001.161255 1406.669312,1001.161255 1395.211792,1001.161255 
	C1400.429810,986.331116 1405.550537,971.777283 1410.671265,957.223511 
	C1411.116821,957.152771 1411.562378,957.082031 1412.007935,957.011353 
	C1416.822876,969.720154 1421.637939,982.429016 1426.582031,995.520630 
z"/>
<path fill="#FEFEFE" opacity="1.000000" stroke="none" 
	d="
M1164.959961,975.685181 
	C1176.840942,972.595642 1184.458618,975.276672 1190.449219,984.369324 
	C1196.257812,993.185669 1196.107422,1005.966797 1190.100952,1013.991272 
	C1184.319702,1021.714783 1173.424927,1025.239990 1164.186768,1021.760742 
	C1155.163452,1018.362427 1149.967163,1011.364380 1148.906494,1001.880798 
	C1147.759277,991.622864 1151.396240,983.249573 1160.552490,977.779907 
	C1161.830322,977.016541 1163.246094,976.484131 1164.959961,975.685181 
z"/>
<path fill="#FEFEFE" opacity="1.000000" stroke="none" 
	d="
M1653.400635,1008.075256 
	C1648.112183,1020.858398 1635.074463,1026.405762 1622.846680,1021.405457 
	C1610.881592,1016.512573 1605.580933,1001.991455 1610.977661,988.890381 
	C1615.657715,977.529053 1629.537354,971.789246 1641.013794,976.469238 
	C1650.555420,980.360168 1656.253296,991.124512 1654.647095,1002.326233 
	C1654.388062,1004.132690 1653.900513,1005.906372 1653.400635,1008.075256 
z"/>
<path fill="#FEFEFE" opacity="1.000000" stroke="none" 
	d="
M1654.302734,964.946533 
	C1654.380371,965.332214 1654.069336,966.196472 1653.571533,966.799744 
	C1653.561279,966.167480 1653.737793,965.796326 1654.302734,964.946533 
z"/>
</svg>